<?xml version="1.0" encoding="UTF-8" standalone="no"?>
<!DOCTYPE svg PUBLIC "-//W3C//DTD SVG 1.1//EN"
 "http://www.w3.org/Graphics/SVG/1.1/DTD/svg11.dtd">
<!-- Generated by graphviz version 2.40.1 (0)
 -->
<!-- Title: parse_tree Pages: 1 -->
<svg width="1205pt" height="403pt"
 viewBox="0.00 0.00 1205.45 402.96" xmlns="http://www.w3.org/2000/svg" xmlns:xlink="http://www.w3.org/1999/xlink">
<g id="graph0" class="graph" transform="scale(1 1) rotate(0) translate(4 398.9605)">
<title>parse_tree</title>
<polygon fill="#ffffff" stroke="transparent" points="-4,4 -4,-398.9605 1201.4457,-398.9605 1201.4457,4 -4,4"/>
<!-- x0x1690eb0 -->
<g id="node1" class="node">
<title>x0x1690eb0</title>
<ellipse fill="none" stroke="#000000" cx="485.0158" cy="-376.9605" rx="38.1938" ry="18"/>
<text text-anchor="middle" x="485.0158" y="-373.2605" font-family="Times,serif" font-size="14.00" fill="#000000">ROOT</text>
</g>
<!-- x0x1691240 -->
<g id="node2" class="node">
<title>x0x1691240</title>
<ellipse fill="none" stroke="#000000" cx="485.0158" cy="-296.0904" rx="194.4087" ry="26.7407"/>
<text text-anchor="middle" x="485.0158" y="-299.8904" font-family="Times,serif" font-size="14.00" fill="#000000">tao::pegtl::json::object</text>
<text text-anchor="middle" x="485.0158" y="-284.8904" font-family="Times,serif" font-size="14.00" fill="#000000">&quot;{\&quot;foo\&quot;:[true,{}],\&quot;bar\&quot;:[42,null]}&quot;</text>
</g>
<!-- x0x1690eb0&#45;&gt;x0x1691240 -->
<g id="edge1" class="edge">
<title>x0x1690eb0&#45;&gt;x0x1691240</title>
<path fill="none" stroke="#000000" d="M485.0158,-358.6098C485.0158,-351.0399 485.0158,-341.9805 485.0158,-333.1385"/>
<polygon fill="#000000" stroke="#000000" points="488.5159,-332.961 485.0158,-322.961 481.5159,-332.9611 488.5159,-332.961"/>
</g>
<!-- x0x16913f0 -->
<g id="node3" class="node">
<title>x0x16913f0</title>
<ellipse fill="none" stroke="#000000" cx="341.0158" cy="-206.3503" rx="135.1148" ry="26.7407"/>
<text text-anchor="middle" x="341.0158" y="-210.1503" font-family="Times,serif" font-size="14.00" fill="#000000">tao::pegtl::json::member</text>
<text text-anchor="middle" x="341.0158" y="-195.1503" font-family="Times,serif" font-size="14.00" fill="#000000">&quot;\&quot;foo\&quot;:[true,{}]&quot;</text>
</g>
<!-- x0x1691240&#45;&gt;x0x16913f0 -->
<g id="edge2" class="edge">
<title>x0x1691240&#45;&gt;x0x16913f0</title>
<path fill="none" stroke="#000000" d="M442.5899,-269.6508C426.341,-259.5246 407.6599,-247.8826 390.7852,-237.3663"/>
<polygon fill="#000000" stroke="#000000" points="392.4859,-234.3022 382.1479,-231.9836 388.7836,-240.243 392.4859,-234.3022"/>
</g>
<!-- x0x1691870 -->
<g id="node4" class="node">
<title>x0x1691870</title>
<ellipse fill="none" stroke="#000000" cx="629.0158" cy="-206.3503" rx="135.1148" ry="26.7407"/>
<text text-anchor="middle" x="629.0158" y="-210.1503" font-family="Times,serif" font-size="14.00" fill="#000000">tao::pegtl::json::member</text>
<text text-anchor="middle" x="629.0158" y="-195.1503" font-family="Times,serif" font-size="14.00" fill="#000000">&quot;\&quot;bar\&quot;:[42,null]&quot;</text>
</g>
<!-- x0x1691240&#45;&gt;x0x1691870 -->
<g id="edge3" class="edge">
<title>x0x1691240&#45;&gt;x0x1691870</title>
<path fill="none" stroke="#000000" d="M527.4417,-269.6508C543.6905,-259.5246 562.3716,-247.8826 579.2464,-237.3663"/>
<polygon fill="#000000" stroke="#000000" points="581.2479,-240.243 587.8837,-231.9836 577.5456,-234.3022 581.2479,-240.243"/>
</g>
<!-- x0x1691510 -->
<g id="node5" class="node">
<title>x0x1691510</title>
<ellipse fill="none" stroke="#000000" cx="111.0158" cy="-116.6102" rx="111.0315" ry="26.7407"/>
<text text-anchor="middle" x="111.0158" y="-120.4102" font-family="Times,serif" font-size="14.00" fill="#000000">tao::pegtl::json::key</text>
<text text-anchor="middle" x="111.0158" y="-105.4102" font-family="Times,serif" font-size="14.00" fill="#000000">&quot;\&quot;foo\&quot;&quot;</text>
</g>
<!-- x0x16913f0&#45;&gt;x0x1691510 -->
<g id="edge4" class="edge">
<title>x0x16913f0&#45;&gt;x0x1691510</title>
<path fill="none" stroke="#000000" d="M279.38,-182.3016C248.5091,-170.2566 211.0461,-155.6394 179.3035,-143.2543"/>
<polygon fill="#000000" stroke="#000000" points="180.2378,-139.8619 169.6496,-139.4876 177.6934,-146.3831 180.2378,-139.8619"/>
</g>
<!-- x0x16916c0 -->
<g id="node6" class="node">
<title>x0x16916c0</title>
<ellipse fill="none" stroke="#000000" cx="360.0158" cy="-116.6102" rx="120.4167" ry="26.7407"/>
<text text-anchor="middle" x="360.0158" y="-120.4102" font-family="Times,serif" font-size="14.00" fill="#000000">tao::pegtl::json::array</text>
<text text-anchor="middle" x="360.0158" y="-105.4102" font-family="Times,serif" font-size="14.00" fill="#000000">&quot;[true,{}]&quot;</text>
</g>
<!-- x0x16913f0&#45;&gt;x0x16916c0 -->
<g id="edge5" class="edge">
<title>x0x16913f0&#45;&gt;x0x16916c0</title>
<path fill="none" stroke="#000000" d="M346.7164,-179.4253C348.4448,-171.2616 350.3742,-162.1491 352.2154,-153.4525"/>
<polygon fill="#000000" stroke="#000000" points="355.6719,-154.0243 354.3192,-143.5162 348.8237,-152.5743 355.6719,-154.0243"/>
</g>
<!-- x0x1691900 -->
<g id="node9" class="node">
<title>x0x1691900</title>
<ellipse fill="none" stroke="#000000" cx="619.0158" cy="-116.6102" rx="111.0315" ry="26.7407"/>
<text text-anchor="middle" x="619.0158" y="-120.4102" font-family="Times,serif" font-size="14.00" fill="#000000">tao::pegtl::json::key</text>
<text text-anchor="middle" x="619.0158" y="-105.4102" font-family="Times,serif" font-size="14.00" fill="#000000">&quot;\&quot;bar\&quot;&quot;</text>
</g>
<!-- x0x1691870&#45;&gt;x0x1691900 -->
<g id="edge8" class="edge">
<title>x0x1691870&#45;&gt;x0x1691900</title>
<path fill="none" stroke="#000000" d="M626.0154,-179.4253C625.1156,-171.3504 624.1124,-162.3471 623.1528,-153.7362"/>
<polygon fill="#000000" stroke="#000000" points="626.6,-153.067 622.014,-143.5162 619.6431,-153.8423 626.6,-153.067"/>
</g>
<!-- x0x1691c70 -->
<g id="node10" class="node">
<title>x0x1691c70</title>
<ellipse fill="none" stroke="#000000" cx="868.0158" cy="-116.6102" rx="120.4167" ry="26.7407"/>
<text text-anchor="middle" x="868.0158" y="-120.4102" font-family="Times,serif" font-size="14.00" fill="#000000">tao::pegtl::json::array</text>
<text text-anchor="middle" x="868.0158" y="-105.4102" font-family="Times,serif" font-size="14.00" fill="#000000">&quot;[42,null]&quot;</text>
</g>
<!-- x0x1691870&#45;&gt;x0x1691c70 -->
<g id="edge9" class="edge">
<title>x0x1691870&#45;&gt;x0x1691c70</title>
<path fill="none" stroke="#000000" d="M692.4359,-182.5372C724.5318,-170.4858 763.6079,-155.8134 796.7409,-143.3726"/>
<polygon fill="#000000" stroke="#000000" points="798.2351,-146.5502 806.3666,-139.7583 795.7745,-139.9969 798.2351,-146.5502"/>
</g>
<!-- x0x1691480 -->
<g id="node7" class="node">
<title>x0x1691480</title>
<ellipse fill="none" stroke="#000000" cx="154.0158" cy="-26.8701" rx="119.5021" ry="26.7407"/>
<text text-anchor="middle" x="154.0158" y="-30.6701" font-family="Times,serif" font-size="14.00" fill="#000000">tao::pegtl::json::true_</text>
<text text-anchor="middle" x="154.0158" y="-15.6701" font-family="Times,serif" font-size="14.00" fill="#000000">&quot;true&quot;</text>
</g>
<!-- x0x16916c0&#45;&gt;x0x1691480 -->
<g id="edge6" class="edge">
<title>x0x16916c0&#45;&gt;x0x1691480</title>
<path fill="none" stroke="#000000" d="M305.0822,-92.6794C278.4184,-81.0638 246.2148,-67.0349 218.403,-54.9192"/>
<polygon fill="#000000" stroke="#000000" points="219.7196,-51.6751 209.1539,-50.89 216.9239,-58.0926 219.7196,-51.6751"/>
</g>
<!-- x0x1691b50 -->
<g id="node8" class="node">
<title>x0x1691b50</title>
<ellipse fill="none" stroke="#000000" cx="416.0158" cy="-26.8701" rx="124.4016" ry="26.7407"/>
<text text-anchor="middle" x="416.0158" y="-30.6701" font-family="Times,serif" font-size="14.00" fill="#000000">tao::pegtl::json::object</text>
<text text-anchor="middle" x="416.0158" y="-15.6701" font-family="Times,serif" font-size="14.00" fill="#000000">&quot;{}&quot;</text>
</g>
<!-- x0x16916c0&#45;&gt;x0x1691b50 -->
<g id="edge7" class="edge">
<title>x0x16916c0&#45;&gt;x0x1691b50</title>
<path fill="none" stroke="#000000" d="M376.8176,-89.6852C382.1888,-81.0778 388.2182,-71.4157 393.9077,-62.2983"/>
<polygon fill="#000000" stroke="#000000" points="396.901,-64.1127 399.2258,-53.776 390.9624,-60.4068 396.901,-64.1127"/>
</g>
<!-- x0x1691630 -->
<g id="node11" class="node">
<title>x0x1691630</title>
<ellipse fill="none" stroke="#000000" cx="822.0158" cy="-26.8701" rx="132.8722" ry="26.7407"/>
<text text-anchor="middle" x="822.0158" y="-30.6701" font-family="Times,serif" font-size="14.00" fill="#000000">tao::pegtl::json::number</text>
<text text-anchor="middle" x="822.0158" y="-15.6701" font-family="Times,serif" font-size="14.00" fill="#000000">&quot;42&quot;</text>
</g>
<!-- x0x1691c70&#45;&gt;x0x1691630 -->
<g id="edge10" class="edge">
<title>x0x1691c70&#45;&gt;x0x1691630</title>
<path fill="none" stroke="#000000" d="M854.2142,-89.6852C849.8932,-81.2553 845.0535,-71.8137 840.4654,-62.863"/>
<polygon fill="#000000" stroke="#000000" points="843.4838,-61.0785 835.8075,-53.776 837.2545,-64.2716 843.4838,-61.0785"/>
</g>
<!-- x0x1691e80 -->
<g id="node12" class="node">
<title>x0x1691e80</title>
<ellipse fill="none" stroke="#000000" cx="1085.0158" cy="-26.8701" rx="112.36" ry="26.7407"/>
<text text-anchor="middle" x="1085.0158" y="-30.6701" font-family="Times,serif" font-size="14.00" fill="#000000">tao::pegtl::json::null</text>
<text text-anchor="middle" x="1085.0158" y="-15.6701" font-family="Times,serif" font-size="14.00" fill="#000000">&quot;null&quot;</text>
</g>
<!-- x0x1691c70&#45;&gt;x0x1691e80 -->
<g id="edge11" class="edge">
<title>x0x1691c70&#45;&gt;x0x1691e80</title>
<path fill="none" stroke="#000000" d="M925.3138,-92.9146C954.0934,-81.0129 989.1091,-66.5322 1019.0107,-54.1664"/>
<polygon fill="#000000" stroke="#000000" points="1020.6216,-57.2878 1028.525,-50.2318 1017.9464,-50.8191 1020.6216,-57.2878"/>
</g>
</g>
</svg>
