<?xml version="1.0" encoding="UTF-8" standalone="no"?>
<!DOCTYPE svg PUBLIC "-//W3C//DTD SVG 1.1//EN"
 "http://www.w3.org/Graphics/SVG/1.1/DTD/svg11.dtd">
<!-- Generated by graphviz version 2.40.1 (0)
 -->
<!-- Title: parse_tree Pages: 1 -->
<svg width="1063pt" height="367pt"
 viewBox="0.00 0.00 1062.99 367.48" xmlns="http://www.w3.org/2000/svg" xmlns:xlink="http://www.w3.org/1999/xlink">
<g id="graph0" class="graph" transform="scale(1 1) rotate(0) translate(4 363.4802)">
<title>parse_tree</title>
<polygon fill="#ffffff" stroke="transparent" points="-4,4 -4,-363.4802 1058.9899,-363.4802 1058.9899,4 -4,4"/>
<!-- x0x1604e70 -->
<g id="node1" class="node">
<title>x0x1604e70</title>
<ellipse fill="none" stroke="#000000" cx="632.8736" cy="-341.4802" rx="39.7935" ry="18"/>
<text text-anchor="middle" x="632.8736" y="-337.7802" font-family="Times,serif" font-size="14.00" fill="#000000">ROOT</text>
</g>
<!-- x0x1605200 -->
<g id="node2" class="node">
<title>x0x1605200</title>
<ellipse fill="none" stroke="#000000" cx="632.8736" cy="-269.4802" rx="83.6854" ry="18"/>
<text text-anchor="middle" x="632.8736" y="-265.7802" font-family="Times,serif" font-size="14.00" fill="#000000">example::divide</text>
</g>
<!-- x0x1604e70&#45;&gt;x0x1605200 -->
<g id="edge1" class="edge">
<title>x0x1604e70&#45;&gt;x0x1605200</title>
<path fill="none" stroke="#000000" d="M632.8736,-323.3116C632.8736,-315.6112 632.8736,-306.4546 632.8736,-297.8969"/>
<polygon fill="#000000" stroke="#000000" points="636.3737,-297.8935 632.8736,-287.8935 629.3737,-297.8935 636.3737,-297.8935"/>
</g>
<!-- x0x16053b0 -->
<g id="node3" class="node">
<title>x0x16053b0</title>
<ellipse fill="none" stroke="#000000" cx="528.8736" cy="-197.4802" rx="75.2868" ry="18"/>
<text text-anchor="middle" x="528.8736" y="-193.7802" font-family="Times,serif" font-size="14.00" fill="#000000">example::plus</text>
</g>
<!-- x0x1605200&#45;&gt;x0x16053b0 -->
<g id="edge2" class="edge">
<title>x0x1605200&#45;&gt;x0x16053b0</title>
<path fill="none" stroke="#000000" d="M607.963,-252.2344C594.199,-242.7055 576.9218,-230.7443 562.0293,-220.4341"/>
<polygon fill="#000000" stroke="#000000" points="563.7951,-217.3998 553.581,-214.5853 559.8106,-223.1551 563.7951,-217.3998"/>
</g>
<!-- x0x1605a60 -->
<g id="node4" class="node">
<title>x0x1605a60</title>
<ellipse fill="none" stroke="#000000" cx="737.8736" cy="-197.4802" rx="94.4839" ry="18"/>
<text text-anchor="middle" x="737.8736" y="-193.7802" font-family="Times,serif" font-size="14.00" fill="#000000">example::multiply</text>
</g>
<!-- x0x1605200&#45;&gt;x0x1605a60 -->
<g id="edge3" class="edge">
<title>x0x1605200&#45;&gt;x0x1605a60</title>
<path fill="none" stroke="#000000" d="M658.0237,-252.2344C671.8187,-242.775 689.109,-230.9188 704.0695,-220.6602"/>
<polygon fill="#000000" stroke="#000000" points="706.2969,-223.3767 712.5648,-214.8348 702.3381,-217.6036 706.2969,-223.3767"/>
</g>
<!-- x0x1605560 -->
<g id="node5" class="node">
<title>x0x1605560</title>
<ellipse fill="none" stroke="#000000" cx="312.8736" cy="-116.6102" rx="94.4839" ry="18"/>
<text text-anchor="middle" x="312.8736" y="-112.9102" font-family="Times,serif" font-size="14.00" fill="#000000">example::multiply</text>
</g>
<!-- x0x16053b0&#45;&gt;x0x1605560 -->
<g id="edge4" class="edge">
<title>x0x16053b0&#45;&gt;x0x1605560</title>
<path fill="none" stroke="#000000" d="M488.2457,-182.2692C453.5814,-169.2909 403.4996,-150.5404 365.7225,-136.3967"/>
<polygon fill="#000000" stroke="#000000" points="366.5019,-132.9513 355.9096,-132.7228 364.0475,-139.5069 366.5019,-132.9513"/>
</g>
<!-- x0x16057e0 -->
<g id="node6" class="node">
<title>x0x16057e0</title>
<ellipse fill="none" stroke="#000000" cx="528.8736" cy="-116.6102" rx="94.4839" ry="18"/>
<text text-anchor="middle" x="528.8736" y="-112.9102" font-family="Times,serif" font-size="14.00" fill="#000000">example::multiply</text>
</g>
<!-- x0x16053b0&#45;&gt;x0x16057e0 -->
<g id="edge5" class="edge">
<title>x0x16053b0&#45;&gt;x0x16057e0</title>
<path fill="none" stroke="#000000" d="M528.8736,-179.1296C528.8736,-169.1 528.8736,-156.4555 528.8736,-145.1666"/>
<polygon fill="#000000" stroke="#000000" points="532.3737,-144.8882 528.8736,-134.8882 525.3737,-144.8883 532.3737,-144.8882"/>
</g>
<!-- x0x16059d0 -->
<g id="node11" class="node">
<title>x0x16059d0</title>
<ellipse fill="none" stroke="#000000" cx="737.8736" cy="-116.6102" rx="96.7474" ry="26.7407"/>
<text text-anchor="middle" x="737.8736" y="-120.4102" font-family="Times,serif" font-size="14.00" fill="#000000">example::integer</text>
<text text-anchor="middle" x="737.8736" y="-105.4102" font-family="Times,serif" font-size="14.00" fill="#000000">&quot;4&quot;</text>
</g>
<!-- x0x1605a60&#45;&gt;x0x16059d0 -->
<g id="edge10" class="edge">
<title>x0x1605a60&#45;&gt;x0x16059d0</title>
<path fill="none" stroke="#000000" d="M737.8736,-179.1296C737.8736,-171.5597 737.8736,-162.5002 737.8736,-153.6583"/>
<polygon fill="#000000" stroke="#000000" points="741.3737,-153.4808 737.8736,-143.4808 734.3737,-153.4808 741.3737,-153.4808"/>
</g>
<!-- x0x1605b10 -->
<g id="node12" class="node">
<title>x0x1605b10</title>
<ellipse fill="none" stroke="#000000" cx="953.8736" cy="-116.6102" rx="101.2327" ry="26.7407"/>
<text text-anchor="middle" x="953.8736" y="-120.4102" font-family="Times,serif" font-size="14.00" fill="#000000">example::variable</text>
<text text-anchor="middle" x="953.8736" y="-105.4102" font-family="Times,serif" font-size="14.00" fill="#000000">&quot;n&quot;</text>
</g>
<!-- x0x1605a60&#45;&gt;x0x1605b10 -->
<g id="edge11" class="edge">
<title>x0x1605a60&#45;&gt;x0x1605b10</title>
<path fill="none" stroke="#000000" d="M780.8065,-181.4062C810.7205,-170.2065 851.2523,-155.0314 885.5715,-142.1824"/>
<polygon fill="#000000" stroke="#000000" points="886.9346,-145.4094 895.0725,-138.6252 884.4801,-138.8538 886.9346,-145.4094"/>
</g>
<!-- x0x16054d0 -->
<g id="node7" class="node">
<title>x0x16054d0</title>
<ellipse fill="none" stroke="#000000" cx="96.8736" cy="-26.8701" rx="96.7474" ry="26.7407"/>
<text text-anchor="middle" x="96.8736" y="-30.6701" font-family="Times,serif" font-size="14.00" fill="#000000">example::integer</text>
<text text-anchor="middle" x="96.8736" y="-15.6701" font-family="Times,serif" font-size="14.00" fill="#000000">&quot;2&quot;</text>
</g>
<!-- x0x1605560&#45;&gt;x0x16054d0 -->
<g id="edge6" class="edge">
<title>x0x1605560&#45;&gt;x0x16054d0</title>
<path fill="none" stroke="#000000" d="M273.2559,-100.1505C241.728,-87.0518 196.9923,-68.4657 160.464,-53.2895"/>
<polygon fill="#000000" stroke="#000000" points="161.4608,-49.9137 150.8832,-49.3091 158.7751,-56.378 161.4608,-49.9137"/>
</g>
<!-- x0x1605610 -->
<g id="node8" class="node">
<title>x0x1605610</title>
<ellipse fill="none" stroke="#000000" cx="312.8736" cy="-26.8701" rx="101.2327" ry="26.7407"/>
<text text-anchor="middle" x="312.8736" y="-30.6701" font-family="Times,serif" font-size="14.00" fill="#000000">example::variable</text>
<text text-anchor="middle" x="312.8736" y="-15.6701" font-family="Times,serif" font-size="14.00" fill="#000000">&quot;a&quot;</text>
</g>
<!-- x0x1605560&#45;&gt;x0x1605610 -->
<g id="edge7" class="edge">
<title>x0x1605560&#45;&gt;x0x1605610</title>
<path fill="none" stroke="#000000" d="M312.8736,-98.4499C312.8736,-88.5469 312.8736,-75.9148 312.8736,-64.0273"/>
<polygon fill="#000000" stroke="#000000" points="316.3737,-63.8597 312.8736,-53.8597 309.3737,-63.8597 316.3737,-63.8597"/>
</g>
<!-- x0x1605750 -->
<g id="node9" class="node">
<title>x0x1605750</title>
<ellipse fill="none" stroke="#000000" cx="528.8736" cy="-26.8701" rx="96.7474" ry="26.7407"/>
<text text-anchor="middle" x="528.8736" y="-30.6701" font-family="Times,serif" font-size="14.00" fill="#000000">example::integer</text>
<text text-anchor="middle" x="528.8736" y="-15.6701" font-family="Times,serif" font-size="14.00" fill="#000000">&quot;3&quot;</text>
</g>
<!-- x0x16057e0&#45;&gt;x0x1605750 -->
<g id="edge8" class="edge">
<title>x0x16057e0&#45;&gt;x0x1605750</title>
<path fill="none" stroke="#000000" d="M528.8736,-98.4499C528.8736,-88.5469 528.8736,-75.9148 528.8736,-64.0273"/>
<polygon fill="#000000" stroke="#000000" points="532.3737,-63.8597 528.8736,-53.8597 525.3737,-63.8597 532.3737,-63.8597"/>
</g>
<!-- x0x1605890 -->
<g id="node10" class="node">
<title>x0x1605890</title>
<ellipse fill="none" stroke="#000000" cx="744.8736" cy="-26.8701" rx="101.2327" ry="26.7407"/>
<text text-anchor="middle" x="744.8736" y="-30.6701" font-family="Times,serif" font-size="14.00" fill="#000000">example::variable</text>
<text text-anchor="middle" x="744.8736" y="-15.6701" font-family="Times,serif" font-size="14.00" fill="#000000">&quot;b&quot;</text>
</g>
<!-- x0x16057e0&#45;&gt;x0x1605890 -->
<g id="edge9" class="edge">
<title>x0x16057e0&#45;&gt;x0x1605890</title>
<path fill="none" stroke="#000000" d="M568.4914,-100.1505C599.7956,-87.1447 644.1211,-68.7291 680.5048,-53.6129"/>
<polygon fill="#000000" stroke="#000000" points="682.1617,-56.7147 690.0535,-49.6458 679.476,-50.2504 682.1617,-56.7147"/>
</g>
</g>
</svg>
